<?xml version="1.0" standalone="no"?>
<!DOCTYPE svg PUBLIC "-//W3C//DTD SVG 20010904//EN"
 "http://www.w3.org/TR/2001/REC-SVG-20010904/DTD/svg10.dtd">
<svg version="1.0" xmlns="http://www.w3.org/2000/svg"
 width="1366.000000pt" height="400.000000pt" viewBox="0 0 1366.000000 400.000000"
 preserveAspectRatio="xMidYMid meet">

<g transform="translate(0.000000,400.000000) scale(0.100000,-0.100000)"
fill="#000000" stroke="none">
<path d="M3565 3318 c-51 -18 -96 -59 -117 -104 -30 -70 -14 -110 86 -214 46
-47 209 -215 364 -375 155 -159 281 -294 279 -300 -2 -6 -94 -10 -264 -10
-144 0 -259 -3 -256 -7 2 -5 114 -8 248 -8 230 0 246 -1 280 -21 52 -31 65
-21 65 50 l0 60 -232 238 c-409 418 -486 500 -493 522 -5 16 0 33 19 59 14 20
22 38 16 40 -5 2 -10 14 -10 27 0 41 50 46 363 43 155 -2 291 -7 302 -11 11
-4 7 -1 -10 7 -24 12 -85 15 -320 15 -176 0 -302 -5 -320 -11z"/>
<path d="M5269 3301 c-16 -16 -29 -37 -29 -46 0 -9 13 -30 29 -46 l29 -29 161
0 161 0 0 -435 0 -435 -161 0 -161 0 -29 -29 c-16 -16 -29 -37 -29 -46 0 -9
13 -30 29 -46 l29 -29 412 0 412 0 29 29 c16 16 29 35 29 42 0 6 -10 0 -21
-15 l-21 -27 -22 20 c-20 19 -36 20 -404 23 -404 3 -407 4 -399 48 2 12 27 15
145 18 131 2 145 1 169 -18 47 -36 61 -28 68 43 9 87 2 904 -8 914 -5 4 -87
10 -183 13 -181 5 -198 10 -191 50 2 13 56 15 402 18 391 2 400 2 430 -19 l30
-20 -28 25 -28 26 -410 0 -411 0 -29 -29z"/>
<path d="M7050 3219 c0 -109 0 -111 29 -140 33 -33 75 -38 120 -14 33 16 41
33 41 81 l0 34 90 0 90 0 0 -481 0 -481 29 -29 c37 -36 94 -40 135 -8 l26 20
0 474 c0 260 3 480 6 489 5 13 23 16 95 16 l89 0 0 -34 c0 -48 8 -65 41 -81
45 -24 87 -19 120 14 28 29 29 31 27 128 l-2 98 -5 -97 c-4 -69 -11 -102 -22
-113 -14 -14 -18 -12 -50 27 -22 27 -36 57 -39 83 l-5 40 -142 3 c-79 1 -143
-1 -143 -6 0 -5 9 -17 20 -27 14 -13 17 -22 10 -29 -6 -6 -10 -177 -10 -492 0
-419 -2 -483 -15 -494 -13 -11 -21 -7 -50 26 l-34 39 -1 480 c0 360 -3 484
-12 493 -13 13 -278 18 -278 5 0 -4 10 -17 22 -30 12 -13 16 -23 10 -23 -7 0
-12 -17 -12 -44 0 -27 -6 -48 -15 -56 -13 -11 -21 -7 -50 26 -29 33 -34 47
-35 89 0 28 -7 61 -15 75 -8 14 -14 28 -15 32 0 4 199 9 443 11 l442 2 -467 3
-468 2 0 -111z"/>
<path d="M8889 3301 c-16 -16 -29 -37 -29 -46 0 -9 13 -30 29 -46 l29 -29 161
0 161 0 0 -435 0 -435 -161 0 -161 0 -29 -29 c-16 -16 -29 -37 -29 -46 0 -9
13 -30 29 -46 l29 -29 412 0 412 0 29 29 c16 16 29 35 29 42 0 6 -10 0 -21
-15 l-21 -27 -22 20 c-20 19 -36 20 -404 23 -404 3 -407 4 -399 48 2 12 27 15
145 18 131 2 145 1 169 -18 14 -11 34 -20 44 -20 27 0 31 76 27 548 -3 362 -5
424 -18 432 -8 5 -82 10 -165 11 -178 1 -200 6 -200 39 l0 25 400 3 c391 2
400 2 430 -19 l30 -20 -28 25 -28 26 -410 0 -411 0 -29 -29z"/>
<path d="M4310 3245 c13 -14 26 -25 28 -25 3 0 -5 11 -18 25 -13 14 -26 25
-28 25 -3 0 5 -11 18 -25z"/>
<path d="M6156 3234 l-18 -26 -22 21 c-21 19 -34 21 -184 21 -89 0 -162 -4
-162 -9 0 -5 10 -15 22 -23 19 -13 21 -18 10 -30 -9 -11 -9 -23 -3 -39 10 -24
10 -24 10 4 l1 27 156 0 156 0 29 29 c16 16 29 34 29 40 0 15 -3 14 -24 -15z"/>
<path d="M9776 3234 l-18 -26 -22 21 c-21 19 -34 21 -184 21 -89 0 -162 -4
-162 -9 0 -5 10 -15 22 -23 19 -13 21 -18 10 -30 -9 -11 -9 -23 -3 -39 10 -24
10 -24 10 4 l1 27 156 0 156 0 29 29 c16 16 29 34 29 40 0 15 -3 14 -24 -15z"/>
<path d="M3596 3241 c-3 -5 6 -16 20 -26 25 -16 25 -17 8 -36 -17 -18 -14 -22
87 -122 l104 -102 -94 96 c-65 67 -92 102 -88 113 6 14 36 16 244 16 131 0
248 -3 261 -6 14 -4 31 -23 44 -48 32 -64 46 -76 93 -76 56 0 96 35 93 82 l-1
33 -4 -32 c-2 -17 -11 -37 -20 -44 -17 -15 -30 -1 -84 82 -49 77 -56 79 -377
79 -155 0 -283 -4 -286 -9z"/>
<path d="M4090 2665 c69 -69 127 -125 130 -125 2 0 -51 56 -120 125 -69 69
-127 125 -130 125 -2 0 51 -56 120 -125z"/>
<path d="M3473 2428 c-34 -16 -48 -61 -34 -108 15 -51 52 -94 110 -128 l46
-27 313 -3 c304 -3 315 -2 358 18 61 30 96 78 100 138 3 47 3 47 -5 7 -13 -72
-60 -127 -88 -104 -8 7 -117 12 -320 13 -277 1 -312 3 -345 19 -36 18 -85 82
-107 139 -9 25 -8 28 14 34 13 3 34 3 47 -1 18 -5 20 -4 8 4 -19 13 -68 13
-97 -1z"/>
<path d="M3611 2374 c0 -11 3 -14 6 -6 3 7 2 16 -1 19 -3 4 -6 -2 -5 -13z"/>
<path d="M5965 2300 c88 -3 167 -9 175 -13 8 -5 6 -1 -4 7 -16 13 -47 16 -175
14 l-156 -2 160 -6z"/>
<path d="M9585 2300 c88 -3 167 -9 175 -13 8 -5 6 -1 -4 7 -16 13 -47 16 -175
14 l-156 -2 160 -6z"/>
<path d="M3214 2026 c-3 -7 -4 -42 -2 -77 l3 -64 3585 -3 c1972 -1 3600 0
3618 3 l32 6 -2 72 -2 72 -3 -60 c-2 -33 -8 -64 -12 -68 -5 -5 -20 6 -34 22
l-26 31 -3544 0 -3544 0 -11 25 c-7 14 -12 28 -12 30 0 3 1608 5 3574 5 2373
0 3577 3 3581 10 4 7 -1197 10 -3595 10 -3020 0 -3601 -2 -3606 -14z"/>
</g>
</svg>
