<?xml version="1.0" standalone="no"?>
<!DOCTYPE svg PUBLIC "-//W3C//DTD SVG 20010904//EN"
 "http://www.w3.org/TR/2001/REC-SVG-20010904/DTD/svg10.dtd">
<svg version="1.0" xmlns="http://www.w3.org/2000/svg"
 width="1366.000000pt" height="400.000000pt" viewBox="0 0 1366.000000 400.000000"
 preserveAspectRatio="xMidYMid meet">

<g transform="translate(0.000000,400.000000) scale(0.100000,-0.100000)"
fill="#000000" stroke="none">
<path d="M3568 3316 c-55 -20 -86 -43 -108 -79 -23 -36 -26 -110 -7 -144 7
-11 173 -187 370 -389 197 -202 356 -372 354 -378 -3 -8 -84 -11 -264 -11
-144 0 -259 -3 -256 -7 2 -5 116 -8 253 -8 240 0 249 -1 255 -20 4 -11 11 -18
16 -15 5 4 9 2 9 -4 0 -5 8 -11 18 -14 47 -11 -122 -19 -330 -15 -195 3 -239
6 -268 21 -35 17 -70 61 -102 127 -15 31 -15 36 -1 44 8 4 29 5 46 2 23 -4 28
-3 17 4 -27 17 -78 11 -106 -13 -51 -45 -27 -143 50 -202 67 -51 96 -55 410
-55 l292 0 52 26 c65 32 94 71 98 132 l3 47 -8 -40 c-9 -50 -25 -80 -52 -99
-20 -13 -24 -13 -50 6 -18 14 -25 25 -20 32 16 19 23 80 12 108 -5 14 -161
181 -346 371 -307 314 -386 401 -385 424 0 4 13 23 28 41 l27 33 32 -24 c29
-21 31 -25 18 -40 -8 -9 -10 -12 -3 -7 16 14 503 13 528 0 11 -6 28 -30 39
-54 21 -48 45 -66 86 -66 60 0 105 47 92 97 -3 10 -5 5 -6 -13 -2 -54 -24 -60
-62 -16 -19 21 -41 52 -50 68 -32 59 -53 63 -392 65 -175 0 -307 5 -307 10 0
5 7 9 16 9 8 0 12 5 9 10 -4 6 -11 8 -16 5 -5 -4 -9 -2 -9 4 0 25 88 32 363
29 155 -2 291 -7 302 -11 l20 -9 -20 14 c-30 19 -595 23 -647 4z"/>
<path d="M5274 3307 c-17 -15 -26 -33 -26 -52 0 -19 9 -37 26 -52 26 -22 34
-23 187 -23 l159 0 0 -435 0 -435 -159 0 c-153 0 -161 -1 -187 -23 -17 -15
-26 -33 -26 -52 0 -19 9 -37 26 -52 l27 -23 408 0 c398 0 409 1 435 21 14 11
26 25 26 31 0 6 -8 4 -18 -5 -16 -15 -19 -15 -30 3 -11 18 -29 19 -392 22
-373 3 -380 3 -401 24 -37 38 -18 44 129 44 133 0 138 -1 165 -26 33 -30 59
-28 68 6 9 31 9 894 0 935 l-6 30 -173 5 c-158 5 -175 7 -188 25 -8 10 -13 24
-11 30 2 6 140 12 403 15 l399 5 -407 3 -407 2 -27 -23z"/>
<path d="M7054 3285 c-3 -25 -4 -77 -2 -116 3 -63 7 -74 31 -95 32 -27 75 -31
116 -9 33 16 41 33 41 81 l0 34 95 0 95 0 0 -489 0 -490 28 -21 c32 -26 101
-23 132 5 19 18 20 34 20 507 l0 488 95 0 95 0 0 -34 c0 -48 8 -65 41 -81 45
-24 87 -19 120 14 28 29 29 32 27 123 l-2 93 -5 -91 c-4 -55 -11 -98 -20 -108
-13 -15 -17 -13 -50 26 -24 28 -38 55 -41 82 l-5 41 -147 3 c-141 2 -172 -3
-133 -26 14 -7 16 -68 15 -507 0 -445 -2 -501 -16 -515 -14 -13 -17 -13 -22
-1 -2 8 -18 27 -33 44 l-29 30 0 476 c0 358 -3 480 -12 489 -14 14 -288 18
-288 4 0 -4 8 -14 18 -21 15 -11 18 -23 14 -65 -5 -61 -27 -92 -44 -63 -5 11
-21 28 -34 40 -20 17 -24 30 -24 77 0 34 -6 64 -15 76 -8 10 -15 22 -15 26 0
4 199 9 443 11 l442 2 -462 3 -462 2 -7 -45z"/>
<path d="M8894 3307 c-17 -15 -26 -33 -26 -52 0 -19 9 -37 26 -52 26 -22 34
-23 187 -23 l159 0 0 -435 0 -435 -159 0 c-153 0 -161 -1 -187 -23 -17 -15
-26 -33 -26 -52 0 -19 9 -37 26 -52 l27 -23 408 0 c398 0 409 1 435 21 14 11
26 25 26 31 0 6 -9 3 -19 -6 -18 -16 -20 -16 -33 3 -14 19 -27 20 -401 23
-328 3 -389 5 -397 18 -6 9 -5 20 3 29 10 12 9 13 -2 6 -10 -5 -12 -4 -7 3 5
8 52 12 148 12 131 0 140 -1 145 -20 3 -11 10 -20 15 -20 5 0 6 5 2 11 -4 7 7
4 24 -7 17 -10 35 -14 39 -10 11 11 16 901 5 951 l-8 40 -169 6 c-94 3 -178 9
-188 13 -11 5 -17 17 -15 30 3 21 5 21 403 26 l400 5 -407 3 -407 2 -27 -23z"/>
<path d="M6121 3317 c2 -1 15 -11 29 -22 l25 -20 -19 23 c-11 12 -24 22 -29
22 -6 0 -8 -1 -6 -3z"/>
<path d="M9741 3317 c2 -1 15 -11 29 -22 l25 -20 -19 23 c-11 12 -24 22 -29
22 -6 0 -8 -1 -6 -3z"/>
<path d="M4310 3245 c13 -14 26 -25 28 -25 3 0 -5 11 -18 25 -13 14 -26 25
-28 25 -3 0 5 -11 18 -25z"/>
<path d="M5767 3244 c-4 -4 5 -17 19 -29 17 -15 22 -25 15 -29 -14 -9 -15 -36
-1 -36 6 0 10 7 10 15 0 13 24 15 154 15 140 0 156 2 180 21 14 11 26 25 26
31 0 6 -8 4 -18 -6 -18 -15 -20 -15 -37 4 -17 18 -31 20 -180 20 -89 0 -165
-3 -168 -6z"/>
<path d="M9387 3243 c-9 -9 12 -33 30 -33 10 0 11 -4 3 -19 -13 -25 -13 -41 0
-41 6 0 10 7 10 15 0 13 24 15 154 15 140 0 156 2 180 21 14 11 26 25 26 31 0
6 -8 4 -18 -5 -17 -15 -19 -15 -35 3 -15 18 -30 20 -180 20 -90 0 -167 -3
-170 -7z"/>
<path d="M3700 3065 c47 -47 87 -85 90 -85 2 0 -33 38 -80 85 -47 47 -87 85
-90 85 -2 0 33 -38 80 -85z"/>
<path d="M4075 2680 c60 -60 112 -110 115 -110 2 0 -45 50 -105 110 -60 61
-112 110 -115 110 -2 0 45 -49 105 -110z"/>
<path d="M3611 2374 c0 -11 3 -14 6 -6 3 7 2 16 -1 19 -3 4 -6 -2 -5 -13z"/>
<path d="M5883 2303 c42 -2 112 -2 155 0 42 1 7 3 -78 3 -85 0 -120 -2 -77 -3z"/>
<path d="M9503 2303 c42 -2 112 -2 155 0 42 1 7 3 -78 3 -85 0 -120 -2 -77 -3z"/>
<path d="M6120 2296 c0 -2 7 -7 16 -10 8 -3 12 -2 9 4 -6 10 -25 14 -25 6z"/>
<path d="M9740 2296 c0 -2 7 -7 16 -10 8 -3 12 -2 9 4 -6 10 -25 14 -25 6z"/>
<path d="M4262 2260 c6 -19 38 -26 38 -9 0 7 -3 9 -7 6 -3 -4 -13 -1 -21 6
-13 10 -14 9 -10 -3z"/>
<path d="M3214 2031 c-2 -2 -4 -35 -4 -73 l0 -68 3620 0 3620 0 -2 73 -2 72
-3 -60 c-2 -33 -8 -64 -13 -68 -4 -5 -18 5 -31 22 l-23 31 -3543 0 -3542 0
-16 30 -16 30 3578 2 c1968 2 3200 4 2738 5 -1640 5 -6357 8 -6361 4z"/>
</g>
</svg>
